# xmcd CD database file
#
# Track frame offsets:
#	150
#	19055
#	30810
#	58703
#	71493
#	86814
#	106124
#	118350
#	138288
#	156217
#	169255
#	185218
#	202027
#	225577
#	238546
#
# Disc length: 3483 seconds
#
# Revision: 1
# Processed by: cddbd v1.5.2PL0 Copyright (c) Steve Scherf et al.
# Submitted via: CDex 1.51
#
DISCID=cb0d990f
DTITLE=Canon - ¥d¹A±ß¦w¦±
DYEAR=1900
DGENRE=New Age
TTITLE0=Claudia's Theme
TTITLE1=Gymnopedies1
TTITLE2=Canon In D
TTITLE3=Nap In The Dunes
TTITLE4=Riding The Waves
TTITLE5=Ave Maria
TTITLE6=Air On The G String
TTITLE7=All The World Is Sleeping
TTITLE8=Lullaby
TTITLE9=Music Box Dancer
TTITLE10=Romanza
TTITLE11=A Winter Round
TTITLE12=Clair De Lune
TTITLE13=Starlight
TTITLE14=Dawn
EXTD=
EXTT0=
EXTT1=
EXTT2=
EXTT3=
EXTT4=
EXTT5=
EXTT6=
EXTT7=
EXTT8=
EXTT9=
EXTT10=
EXTT11=
EXTT12=
EXTT13=
EXTT14=
PLAYORDER=
